<svg xmlns="http://www.w3.org/2000/svg">
  <symbol id="dark" viewBox="0 0 16 16">
    <g>
      <path d="M6 .278a.768.768 0 0 1 .08.858 7.208 7.208 0 0 0-.878 3.46c0 4.021 3.278 7.277 7.318 7.277.527 0 1.04-.055 1.533-.16a.787.787 0 0 1 .81.316.733.733 0 0 1-.031.893A8.349 8.349 0 0 1 8.344 16C3.734 16 0 12.286 0 7.71 0 4.266 2.114 1.312 5.124.06A.752.752 0 0 1 6 .278zM4.858 1.311A7.269 7.269 0 0 0 1.025 7.71c0 4.02 3.279 7.276 7.319 7.276a7.316 7.316 0 0 0 5.205-2.162c-.337.042-.68.063-1.029.063-4.61 0-8.343-3.714-8.343-8.29 0-1.167.242-2.278.681-3.286z"/>
    </g>
  </symbol>
  <symbol id="rules" viewBox="0 0 24 24">
    <g>
      <path d="M12 4C9.23772 4 7 6.23772 7 9C7 9.55228 7.44772 10 8 10C8.55228 10 9 9.55228 9 9C9 7.34228 10.3423 6 12 6C13.6577 6 15 7.34228 15 9C15 9.81648 14.8014 10.2945 14.5621 10.6286C14.3004 10.9938 13.9373 11.2671 13.4335 11.6135L13.3183 11.6923C12.8712 11.9977 12.2953 12.391 11.8493 12.9392C11.3224 13.5869 11 14.4061 11 15.5V16C11 16.5523 11.4477 17 12 17C12.5523 17 13 16.5523 13 16V15.5C13 14.8439 13.1776 14.4756 13.4007 14.2014C13.6567 13.8868 14.0026 13.6491 14.5137 13.2978L14.5665 13.2615C15.0627 12.9204 15.6996 12.4749 16.1879 11.7933C16.6986 11.0805 17 10.1835 17 9C17 6.23772 14.7623 4 12 4Z" />
      <path d="M12 21.25C12.6904 21.25 13.25 20.6904 13.25 20C13.25 19.3096 12.6904 18.75 12 18.75C11.3096 18.75 10.75 19.3096 10.75 20C10.75 20.6904 11.3096 21.25 12 21.25Z" />
    </g>
  </symbol>
  <symbol id="del" viewBox="0 0 18 16">
    <g>
      <path
     d="m 7.2968625,15.713273 c 0.3934,0.3876 1.0266,0.3829 1.4142,-0.0105 0.3876,-0.3934 0.3829,-1.0265 -0.0105,-1.4142 L 3.3302225,8.9971726 H 17.001362 c 0.5523,0 1,-0.4477 1,-1 0,-0.5522 -0.4477,-1 -1,-1 H 3.3368225 l 5.36374,-5.28485 c 0.3934,-0.38762 0.3981,-1.02077001 0.0105,-1.41417001 -0.3876,-0.39341 -1.0208,-0.3981 -1.4142,-0.01047 l -6.92418,6.82239001 c -0.49691,0.4896 -0.49691,1.2912 0,1.7808 z"
     
     />
    </g>
  </symbol>
  <symbol id="compare" viewBox="0 0 960 960">
    <g> 
      <path d="M 237,736 195,694 316,573 H 0 V 513 H 316 L 195,392 237,350 430,543 Z M 563,482 370,289 563,96 605,138 484,259 h 316 v 60 H 484 l 121,121 z"/>
    </g>  
  </symbol>
</svg>